<svg width="36" height="37" viewBox="0 0 36 37" fill="none" xmlns="http://www.w3.org/2000/svg">
<path fill-rule="evenodd" clip-rule="evenodd" d="M12.8983 7.09621C14.8649 3.09233 18.9839 0.333252 23.75 0.333252C30.4234 0.333252 35.8333 5.74314 35.8333 12.4166C35.8333 14.2034 35.4447 15.9028 34.7461 17.4321C34.5638 17.8313 34.5283 18.2083 34.6094 18.5112L34.8217 19.3046C35.5012 21.8443 33.1777 24.1678 30.638 23.4883L29.8446 23.276C29.6191 23.2156 29.3526 23.2199 29.0665 23.3011C28.2164 30.5457 22.0563 36.1666 14.5833 36.1666C12.3334 36.1666 10.1991 35.6562 8.29316 34.7437C7.91584 34.5631 7.54434 34.5264 7.23873 34.6082L5.19534 35.1549C2.65562 35.8345 0.332122 33.511 1.01166 30.9712L1.5584 28.9279C1.64017 28.6223 1.60352 28.2507 1.42288 27.8734C0.510391 25.9674 0 23.8332 0 21.5833C0 14.099 5.63788 7.93154 12.8983 7.09621ZM15.8083 7.05064C23.0163 7.65011 28.7357 13.4918 29.1434 20.7526C29.5809 20.7109 30.0357 20.7392 30.4908 20.8609L31.2842 21.0732C31.9656 21.2555 32.5889 20.6321 32.4066 19.9508L32.1943 19.1574C31.9324 18.1785 32.1031 17.2013 32.4721 16.3934C33.0248 15.1836 33.3333 13.8378 33.3333 12.4166C33.3333 7.12386 29.0427 2.83325 23.75 2.83325C20.4468 2.83325 17.532 4.50465 15.8083 7.05064ZM14.5833 9.49992C7.90989 9.49992 2.5 14.9098 2.5 21.5833C2.5 23.4517 2.92319 25.2177 3.67779 26.7939C4.07012 27.6134 4.23465 28.5978 3.97345 29.574L3.42671 31.6174C3.24439 32.2988 3.86777 32.9222 4.54916 32.7399L6.59255 32.1931C7.56877 31.9319 8.55318 32.0965 9.37269 32.4888C10.9489 33.2434 12.7149 33.6666 14.5833 33.6666C21.2568 33.6666 26.6667 28.2567 26.6667 21.5833C26.6667 14.9098 21.2568 9.49992 14.5833 9.49992Z" fill="white"/>
<path d="M10.4167 21.5833C10.4167 22.5037 9.67047 23.2499 8.75 23.2499C7.82953 23.2499 7.08333 22.5037 7.08333 21.5833C7.08333 20.6628 7.82953 19.9166 8.75 19.9166C9.67047 19.9166 10.4167 20.6628 10.4167 21.5833Z" fill="white"/>
<path d="M16.25 21.5833C16.25 22.5037 15.5038 23.2499 14.5833 23.2499C13.6629 23.2499 12.9167 22.5037 12.9167 21.5833C12.9167 20.6628 13.6629 19.9166 14.5833 19.9166C15.5038 19.9166 16.25 20.6628 16.25 21.5833Z" fill="white"/>
<path d="M22.0833 21.5833C22.0833 22.5037 21.3371 23.2499 20.4167 23.2499C19.4962 23.2499 18.75 22.5037 18.75 21.5833C18.75 20.6628 19.4962 19.9166 20.4167 19.9166C21.3371 19.9166 22.0833 20.6628 22.0833 21.5833Z" fill="white"/>
</svg>
