<svg width="36" height="35" viewBox="0 0 36 35" fill="none" xmlns="http://www.w3.org/2000/svg">
<path fill-rule="evenodd" clip-rule="evenodd" d="M25 2.5V5.31589L28.3334 7.98255V2.5H25ZM30.8334 9.98255V2.08333C30.8334 0.93274 29.9006 0 28.75 0H24.5834C23.4328 0 22.5 0.93274 22.5 2.08333V3.31589L21.8211 2.7727C19.5384 0.946602 16.295 0.946602 14.0124 2.7727L0.469177 13.6072C-0.0699002 14.0385 -0.157302 14.8251 0.27396 15.3642C0.705222 15.9033 1.49184 15.9907 2.03091 15.5594L3.33338 14.5174V31.6667H1.25005C0.55969 31.6667 4.60295e-05 32.2263 4.60295e-05 32.9167C4.60295e-05 33.607 0.55969 34.1667 1.25005 34.1667H34.5834C35.2737 34.1667 35.8334 33.607 35.8334 32.9167C35.8334 32.2263 35.2737 31.6667 34.5834 31.6667H32.5V14.5174L33.8025 15.5594C34.3416 15.9907 35.1282 15.9033 35.5595 15.3642C35.9907 14.8251 35.9033 14.0385 35.3642 13.6072L30.8334 9.98255ZM30 12.5174L20.2593 4.72487C18.8898 3.62921 16.9437 3.62921 15.5741 4.72487L5.83338 12.5174V31.6667H11.6667L11.6667 24.5011C11.6666 23.3929 11.6666 22.4382 11.7694 21.6736C11.8796 20.8542 12.128 20.0688 12.7651 19.4317C13.4021 18.7946 14.1876 18.5462 15.007 18.436C15.7716 18.3332 16.7263 18.3333 17.8344 18.3333H17.999C19.1071 18.3333 20.0619 18.3332 20.8265 18.436C21.6458 18.5462 22.4313 18.7946 23.0684 19.4317C23.7054 20.0688 23.9539 20.8542 24.064 21.6736C24.1668 22.4382 24.1668 23.3929 24.1667 24.5011L24.1667 31.6667H30V12.5174ZM21.6667 31.6667V24.5833C21.6667 23.3695 21.6641 22.5848 21.5863 22.0067C21.5134 21.4645 21.3958 21.2946 21.3006 21.1994C21.2054 21.1043 21.0355 20.9866 20.4933 20.9137C19.9152 20.836 19.1306 20.8333 17.9167 20.8333C16.7029 20.8333 15.9182 20.836 15.3401 20.9137C14.7979 20.9866 14.628 21.1043 14.5328 21.1994C14.4377 21.2946 14.32 21.4645 14.2471 22.0067C14.1694 22.5848 14.1667 23.3695 14.1667 24.5833V31.6667H21.6667ZM17.9167 10C16.7661 10 15.8334 10.9327 15.8334 12.0833C15.8334 13.2339 16.7661 14.1667 17.9167 14.1667C19.0673 14.1667 20 13.2339 20 12.0833C20 10.9327 19.0673 10 17.9167 10ZM13.3334 12.0833C13.3334 9.55203 15.3854 7.5 17.9167 7.5C20.448 7.5 22.5 9.55203 22.5 12.0833C22.5 14.6146 20.448 16.6667 17.9167 16.6667C15.3854 16.6667 13.3334 14.6146 13.3334 12.0833Z" fill="white"/>
</svg>
