<svg width="36" height="37" viewBox="0 0 36 37" fill="none" xmlns="http://www.w3.org/2000/svg">
<path fill-rule="evenodd" clip-rule="evenodd" d="M11.6667 13.25C11.6667 9.79826 14.4649 7.00004 17.9167 7.00004C21.3684 7.00004 24.1667 9.79826 24.1667 13.25C24.1667 16.7018 21.3684 19.5 17.9167 19.5C14.4649 19.5 11.6667 16.7018 11.6667 13.25ZM17.9167 9.50004C15.8456 9.50004 14.1667 11.179 14.1667 13.25C14.1667 15.3211 15.8456 17 17.9167 17C19.9877 17 21.6667 15.3211 21.6667 13.25C21.6667 11.179 19.9877 9.50004 17.9167 9.50004Z" fill="white"/>
<path fill-rule="evenodd" clip-rule="evenodd" d="M0 18.25C0 8.35494 8.02157 0.333374 17.9167 0.333374C27.8118 0.333374 35.8333 8.35494 35.8333 18.25C35.8333 28.1451 27.8118 36.1667 17.9167 36.1667C8.02157 36.1667 0 28.1451 0 18.25ZM17.9167 2.83337C9.40228 2.83337 2.5 9.73565 2.5 18.25C2.5 22.4927 4.21378 26.335 6.98684 29.1226C7.2875 27.5007 7.87823 25.9715 9.06395 24.7419C10.8375 22.9025 13.6736 22 17.9166 22C22.1596 22 24.9956 22.9025 26.7692 24.7419C27.955 25.9716 28.5457 27.5008 28.8464 29.1227C31.6195 26.3352 33.3333 22.4927 33.3333 18.25C33.3333 9.73565 26.4311 2.83337 17.9167 2.83337ZM26.5728 31.009C26.403 28.9891 25.9644 27.5089 24.9696 26.4772C23.8871 25.3546 21.8815 24.5 17.9166 24.5C13.9517 24.5 11.946 25.3546 10.8636 26.4772C9.86878 27.5089 9.43018 28.9891 9.26037 31.0089C11.7281 32.6864 14.7079 33.6667 17.9167 33.6667C21.1254 33.6667 24.1051 32.6864 26.5728 31.009Z" fill="white"/>
</svg>
