<svg width="36" height="37" viewBox="0 0 36 37" fill="none" xmlns="http://www.w3.org/2000/svg">
<path fill-rule="evenodd" clip-rule="evenodd" d="M17.9167 2.83325C9.40228 2.83325 2.5 9.73553 2.5 18.2499C2.5 26.7643 9.40228 33.6666 17.9167 33.6666C26.4311 33.6666 33.3333 26.7643 33.3333 18.2499C33.3333 9.73553 26.4311 2.83325 17.9167 2.83325ZM0 18.2499C0 8.35482 8.02156 0.333252 17.9167 0.333252C27.8118 0.333252 35.8333 8.35482 35.8333 18.2499C35.8333 28.145 27.8118 36.1666 17.9167 36.1666C8.02156 36.1666 0 28.145 0 18.2499ZM17.9167 6.99992C18.607 6.99992 19.1667 7.55956 19.1667 8.24992V8.77781C21.8841 9.26437 24.1667 11.3059 24.1667 14.0833C24.1667 14.7736 23.607 15.3333 22.9167 15.3333C22.2263 15.3333 21.6667 14.7736 21.6667 14.0833C21.6667 12.9525 20.7265 11.7556 19.1667 11.329V17.1111C21.884 17.5977 24.1667 19.6393 24.1667 22.4166C24.1667 25.1939 21.8841 27.2355 19.1667 27.722V28.2499C19.1667 28.9403 18.607 29.4999 17.9167 29.4999C17.2263 29.4999 16.6667 28.9403 16.6667 28.2499V27.722C13.9493 27.2355 11.6667 25.1939 11.6667 22.4166C11.6667 21.7262 12.2263 21.1666 12.9167 21.1666C13.607 21.1666 14.1667 21.7262 14.1667 22.4166C14.1667 23.5473 15.1068 24.7443 16.6667 25.1708V19.3887C13.9493 18.9021 11.6667 16.8606 11.6667 14.0833C11.6667 11.3059 13.9493 9.26437 16.6667 8.77781V8.24992C16.6667 7.55956 17.2263 6.99992 17.9167 6.99992ZM16.6667 11.329C15.1068 11.7556 14.1667 12.9525 14.1667 14.0833C14.1667 15.214 15.1068 16.4109 16.6667 16.8375V11.329ZM19.1667 19.6624V25.1708C20.7265 24.7443 21.6667 23.5473 21.6667 22.4166C21.6667 21.2858 20.7265 20.0889 19.1667 19.6624Z" fill="white"/>
</svg>
