<svg width="198" height="198" viewBox="0 0 198 198" fill="none" xmlns="http://www.w3.org/2000/svg">
<circle cx="99" cy="99" r="99" fill="#2D2D2D"/>
<path d="M59.897 84.624C60.1743 85.2427 60.185 85.8507 59.929 86.448C59.673 87.024 59.2677 87.5573 58.713 88.048C58.1583 88.5387 57.5183 88.9653 56.793 89.328C56.089 89.6907 55.417 89.9467 54.777 90.096C54.073 90.2453 53.3263 90.3093 52.537 90.288C51.769 90.288 50.9903 90.192 50.201 90C49.433 89.8293 48.6757 89.5733 47.929 89.232C47.2037 88.8693 46.5317 88.432 45.913 87.92C45.1663 87.3013 44.5797 86.5653 44.153 85.712C43.7477 84.8373 43.449 83.9093 43.257 82.928C43.065 81.9467 42.9583 80.9653 42.937 79.984C42.937 78.9813 42.969 78.0427 43.033 77.168C43.097 76.3787 43.257 75.5573 43.513 74.704C43.769 73.8507 44.121 73.0187 44.569 72.208C45.0383 71.376 45.593 70.608 46.233 69.904C46.8943 69.2 47.6623 68.6027 48.537 68.112C49.1983 67.728 49.9343 67.472 50.745 67.344C51.577 67.1947 52.409 67.1627 53.241 67.248C54.0943 67.312 54.8943 67.4933 55.641 67.792C56.409 68.0693 57.0597 68.4533 57.593 68.944C57.9343 69.2427 58.2863 69.6587 58.649 70.192C59.033 70.7253 59.3103 71.2693 59.481 71.824C59.6517 72.3787 59.6517 72.9013 59.481 73.392C59.3317 73.8613 58.905 74.1813 58.201 74.352C57.9023 74.4373 57.6357 74.4587 57.401 74.416C57.1663 74.352 56.953 74.256 56.761 74.128C56.569 73.9787 56.3877 73.808 56.217 73.616C56.0463 73.424 55.8863 73.232 55.737 73.04C55.225 72.4213 54.6277 72.0053 53.945 71.792C53.2623 71.5573 52.5797 71.504 51.897 71.632C51.2357 71.7387 50.6063 72.016 50.009 72.464C49.433 72.8907 48.985 73.4453 48.665 74.128C48.3237 74.8533 48.0463 75.6533 47.833 76.528C47.641 77.3813 47.5343 78.256 47.513 79.152C47.4917 80.0267 47.5663 80.88 47.737 81.712C47.929 82.544 48.249 83.28 48.697 83.92C49.0383 84.432 49.4543 84.848 49.945 85.168C50.457 85.488 51.001 85.712 51.577 85.84C52.153 85.968 52.729 85.9893 53.305 85.904C53.9023 85.8187 54.4783 85.6267 55.033 85.328C55.2037 85.2427 55.385 85.1253 55.577 84.976C55.7903 84.8053 56.0037 84.6347 56.217 84.464C56.4303 84.2933 56.6437 84.1333 56.857 83.984C57.0917 83.8347 57.337 83.728 57.593 83.664C57.977 83.536 58.393 83.5467 58.841 83.696C59.3103 83.8453 59.6623 84.1547 59.897 84.624ZM79.1983 88.592C79.2196 88.8053 79.1983 89.008 79.1343 89.2C79.0916 89.328 79.0276 89.4347 78.9423 89.52C78.8783 89.6053 78.7929 89.6907 78.6863 89.776C78.4943 89.904 78.2596 90.0213 77.9823 90.128C77.8116 90.1707 77.6409 90.2027 77.4703 90.224C77.3209 90.2667 77.1609 90.2667 76.9903 90.224C76.6489 90.2027 76.3503 90.0747 76.0943 89.84C75.7316 89.5413 75.4329 89.2107 75.1983 88.848C75.0916 88.6773 74.9743 88.4853 74.8463 88.272C74.7183 88.0587 74.6009 87.8347 74.4943 87.6L70.9423 80.848C70.7716 80.848 70.6009 80.8587 70.4303 80.88C70.2596 80.88 70.0889 80.8907 69.9183 80.912C69.4703 80.9547 69.0436 80.9653 68.6383 80.944C68.2543 80.9227 67.8489 80.9227 67.4223 80.944H66.8143V86.736C66.8143 86.9067 66.8036 87.0667 66.7823 87.216C66.7823 87.3653 66.7823 87.5253 66.7823 87.696C66.7823 87.8027 66.7716 87.9413 66.7503 88.112C66.7503 88.2827 66.7396 88.4427 66.7183 88.592C66.6756 88.8267 66.5796 89.072 66.4303 89.328C66.2809 89.5627 66.0783 89.7653 65.8223 89.936C65.3743 90.2133 64.8303 90.288 64.1903 90.16C63.9129 90.096 63.6463 89.9893 63.3903 89.84C63.3049 89.776 63.2303 89.7013 63.1663 89.616C63.1023 89.5093 63.0489 89.4027 63.0063 89.296C62.9636 89.1893 62.9209 89.0827 62.8783 88.976C62.8569 88.848 62.8249 88.7307 62.7823 88.624C62.7183 88.4107 62.6863 88.208 62.6863 88.016V69.84C62.6863 69.712 62.6863 69.584 62.6863 69.456C62.7076 69.3067 62.7289 69.1787 62.7503 69.072C62.7716 68.8373 62.8463 68.6027 62.9743 68.368C63.0383 68.112 63.1449 67.9307 63.2943 67.824C63.4223 67.696 63.6143 67.5893 63.8703 67.504C64.1476 67.3973 64.5423 67.3547 65.0543 67.376C66.0143 67.3973 66.9636 67.408 67.9023 67.408C68.8409 67.408 69.7796 67.4293 70.7183 67.472C71.3369 67.5147 71.9876 67.5893 72.6703 67.696C73.3743 67.7813 74.0249 67.9413 74.6223 68.176C75.0063 68.3253 75.3583 68.4747 75.6783 68.624C76.0836 68.8587 76.4036 69.0827 76.6383 69.296C77.3849 69.9787 77.9503 70.8 78.3343 71.76C78.7183 72.72 78.9103 73.6907 78.9103 74.672C78.9103 75.824 78.6329 76.88 78.0783 77.84C77.5449 78.8 76.6809 79.5147 75.4863 79.984C75.4436 80.0267 75.3796 80.0587 75.2943 80.08C75.2303 80.08 75.1769 80.0907 75.1343 80.112L78.0783 86.032L78.3663 86.544C78.4089 86.6293 78.4623 86.7253 78.5263 86.832C78.5903 86.9387 78.6436 87.0453 78.6863 87.152C78.7503 87.2587 78.8036 87.376 78.8463 87.504C78.9103 87.632 78.9743 87.7493 79.0382 87.856C79.1023 88.1547 79.1556 88.4 79.1983 88.592ZM71.1983 77.2C71.5823 77.2 71.9449 77.136 72.2863 77.008C72.6489 76.8587 72.9689 76.6667 73.2463 76.432C73.5449 76.1973 73.7903 75.9307 73.9823 75.632C74.1743 75.312 74.2809 74.9707 74.3023 74.608C74.3876 73.5413 74.1103 72.752 73.4703 72.24C72.8303 71.7067 71.9876 71.4187 70.9423 71.376C70.3236 71.3333 69.6409 71.312 68.8943 71.312C68.1689 71.312 67.4756 71.312 66.8143 71.312C66.8356 72.1867 66.8356 73.0827 66.8143 74C66.8143 74.896 66.8143 75.9627 66.8143 77.2H71.1983ZM97.7148 68.72C97.7361 68.8267 97.7361 68.9333 97.7148 69.04C97.7148 69.1467 97.6828 69.264 97.6188 69.392C97.5334 69.6907 97.4374 69.9573 97.3308 70.192C97.2028 70.4907 97.0428 70.7467 96.8507 70.96C96.7654 71.088 96.6801 71.216 96.5948 71.344C96.5308 71.4507 96.4668 71.5573 96.4028 71.664L95.9868 72.208L91.8908 78.128L91.1548 79.056V87.568C91.1121 87.6747 91.0908 87.7813 91.0908 87.888C91.0908 87.9947 91.0801 88.112 91.0588 88.24C91.0161 88.3467 90.9841 88.4533 90.9628 88.56C90.9414 88.6453 90.9094 88.7413 90.8668 88.848C90.8241 88.9333 90.8028 88.9973 90.8028 89.04C90.7814 89.0827 90.7601 89.1147 90.7388 89.136C90.7388 89.1573 90.7281 89.1893 90.7068 89.232C90.5788 89.4453 90.3974 89.6373 90.1628 89.808C89.6934 90.0427 89.1601 90.096 88.5628 89.968C88.2214 89.9253 87.9654 89.8187 87.7948 89.648C87.6881 89.584 87.6028 89.5093 87.5388 89.424C87.4748 89.3387 87.4108 89.2427 87.3468 89.136C87.3041 89.008 87.2614 88.8907 87.2188 88.784C87.1761 88.6773 87.1441 88.5707 87.1228 88.464C87.0801 88.3573 87.0588 88.2613 87.0588 88.176C87.0588 88.0693 87.0588 87.9733 87.0588 87.888V79.152L86.3548 78.064L82.1948 72.176L81.8428 71.6C81.7148 71.408 81.5548 71.184 81.3628 70.928C81.1921 70.6933 81.0428 70.4373 80.9148 70.16C80.8294 70.032 80.7548 69.904 80.6908 69.776C80.6481 69.6267 80.6054 69.4773 80.5628 69.328C80.4988 69.1147 80.4881 68.9013 80.5308 68.688C80.5948 68.4107 80.7228 68.176 80.9148 67.984C81.1281 67.792 81.3521 67.6427 81.5868 67.536C81.8854 67.3227 82.2268 67.2373 82.6108 67.28C82.8454 67.28 83.0481 67.3227 83.2188 67.408C83.3894 67.4933 83.5601 67.5893 83.7308 67.696C83.9228 67.8453 84.1041 68.0053 84.2748 68.176C84.4668 68.3467 84.6374 68.528 84.7868 68.72C84.9574 68.9333 85.1174 69.136 85.2668 69.328C85.4161 69.4987 85.5654 69.7013 85.7148 69.936L85.8108 70.064C86.3228 70.7467 86.8028 71.408 87.2508 72.048C87.6988 72.6667 88.1681 73.3387 88.6588 74.064C88.7014 74.1067 88.7654 74.192 88.8508 74.32C88.9361 74.448 89.0321 74.5973 89.1388 74.768C89.2241 74.6187 89.2988 74.4907 89.3628 74.384C89.4481 74.256 89.5121 74.1707 89.5548 74.128C90.0454 73.4027 90.5148 72.72 90.9628 72.08C91.4108 71.44 91.8908 70.7787 92.4028 70.096L92.4668 69.968C92.6374 69.776 92.7868 69.584 92.9148 69.392C93.0641 69.1787 93.2241 68.9653 93.3948 68.752C93.6721 68.368 94.0454 68.0373 94.5148 67.76C94.8561 67.5253 95.2081 67.376 95.5708 67.312C95.9761 67.2693 96.3281 67.3547 96.6268 67.568C96.7548 67.6533 96.8721 67.728 96.9788 67.792C97.1068 67.856 97.2134 67.9307 97.2987 68.016C97.4694 68.208 97.6081 68.4427 97.7148 68.72ZM114.167 69.36C114.978 70.1067 115.575 71.0027 115.959 72.048C116.343 73.072 116.493 74.096 116.407 75.12C116.322 76.1013 116.013 77.008 115.479 77.84C114.946 78.6507 114.135 79.2693 113.047 79.696C112.194 80.0587 111.351 80.3147 110.519 80.464C109.687 80.6133 108.77 80.7307 107.767 80.816C107.319 80.8587 106.935 80.8907 106.615 80.912C106.317 80.912 105.965 80.9227 105.559 80.944C105.474 80.944 105.325 80.944 105.111 80.944C104.919 80.944 104.781 80.9547 104.695 80.976V87.6C104.631 88.0053 104.546 88.4213 104.439 88.848C104.354 89.2747 104.109 89.6053 103.703 89.84C103.469 89.968 103.181 90.0427 102.839 90.064C102.498 90.0853 102.189 90.0747 101.911 90.032C101.613 89.9893 101.357 89.9147 101.143 89.808C100.951 89.68 100.791 89.4667 100.663 89.168C100.578 88.976 100.493 88.7627 100.407 88.528C100.343 88.272 100.311 87.9627 100.311 87.6V69.904C100.311 69.7547 100.322 69.616 100.343 69.488C100.365 69.36 100.386 69.232 100.407 69.104C100.45 68.9973 100.482 68.88 100.503 68.752C100.525 68.624 100.557 68.5067 100.599 68.4C100.642 68.2933 100.685 68.1973 100.727 68.112C100.791 68.0267 100.866 67.952 100.951 67.888C101.058 67.7813 101.218 67.6853 101.431 67.6C101.666 67.5147 102.007 67.472 102.455 67.472H102.519C103.181 67.4293 103.917 67.3973 104.727 67.376C105.538 67.3333 106.21 67.344 106.743 67.408C107.042 67.4507 107.319 67.4827 107.575 67.504C107.831 67.504 108.077 67.5147 108.311 67.536C108.567 67.5573 108.823 67.5787 109.079 67.6C109.335 67.6213 109.591 67.6533 109.847 67.696C110.061 67.7387 110.253 67.7707 110.423 67.792C110.615 67.8133 110.807 67.8453 110.999 67.888C111.17 67.9307 111.351 67.9733 111.543 68.016C111.757 68.0587 111.949 68.1333 112.119 68.24C112.567 68.368 112.941 68.528 113.239 68.72C113.538 68.912 113.847 69.1253 114.167 69.36ZM112.247 74.64C112.269 74.128 112.162 73.68 111.927 73.296C111.714 72.912 111.405 72.592 110.999 72.336C110.594 72.08 110.135 71.8773 109.623 71.728C109.111 71.5787 108.599 71.472 108.087 71.408C107.959 71.408 107.778 71.408 107.543 71.408C107.33 71.3867 107.095 71.376 106.839 71.376C106.583 71.3547 106.338 71.344 106.103 71.344C105.89 71.3227 105.719 71.312 105.591 71.312C105.485 71.2907 105.357 71.28 105.207 71.28C105.058 71.28 104.887 71.28 104.695 71.28C104.717 71.9413 104.727 72.5813 104.727 73.2C104.727 73.7973 104.727 74.448 104.727 75.152C104.706 75.536 104.695 75.92 104.695 76.304C104.695 76.688 104.695 77.0613 104.695 77.424L106.679 77.392C107.191 77.392 107.757 77.36 108.375 77.296C108.994 77.232 109.581 77.104 110.135 76.912C110.69 76.72 111.159 76.4427 111.543 76.08C111.949 75.7173 112.183 75.2373 112.247 74.64ZM135.413 68.336C135.647 68.6133 135.765 68.9013 135.765 69.2C135.765 69.328 135.754 69.4667 135.733 69.616C135.733 69.744 135.722 69.8613 135.701 69.968C135.637 70.2027 135.498 70.4267 135.285 70.64C135.114 70.768 134.879 70.864 134.581 70.928C134.431 70.9707 134.282 71.0027 134.133 71.024C133.983 71.0453 133.823 71.0773 133.653 71.12C133.503 71.1413 133.354 71.152 133.205 71.152C133.055 71.152 132.895 71.152 132.725 71.152H131.093C130.709 71.1733 130.325 71.184 129.941 71.184C129.578 71.184 129.215 71.184 128.853 71.184C128.874 71.8453 128.885 72.56 128.885 73.328C128.885 74.0747 128.874 74.9493 128.853 75.952C128.853 76.9547 128.842 78.1173 128.821 79.44C128.821 80.7627 128.821 82.2987 128.821 84.048V86.48C128.821 86.6933 128.831 86.8533 128.853 86.96C128.853 87.0453 128.853 87.1307 128.853 87.216C128.853 87.28 128.842 87.3653 128.821 87.472C128.778 87.664 128.746 87.888 128.725 88.144C128.725 88.2507 128.714 88.3573 128.693 88.464C128.671 88.5493 128.639 88.6453 128.597 88.752C128.511 88.8373 128.469 88.9013 128.469 88.944L128.373 89.136C128.266 89.3493 128.063 89.552 127.765 89.744C127.295 89.9787 126.773 90.032 126.197 89.904C125.834 89.8613 125.557 89.7653 125.365 89.616C125.173 89.424 125.034 89.232 124.949 89.04C124.821 88.8053 124.746 88.5813 124.725 88.368C124.661 88.176 124.629 87.9733 124.629 87.76V71.312C124.501 71.312 124.234 71.312 123.829 71.312C123.423 71.312 122.986 71.312 122.517 71.312C122.069 71.2907 121.642 71.2693 121.237 71.248C120.831 71.2267 120.554 71.2053 120.405 71.184C120.277 71.1627 120.074 71.1307 119.797 71.088C119.541 71.0453 119.327 71.0027 119.157 70.96C118.709 70.832 118.357 70.6293 118.101 70.352C117.866 70.0747 117.749 69.7653 117.749 69.424C117.749 69.296 117.749 69.168 117.749 69.04C117.749 68.912 117.77 68.7947 117.813 68.688C117.877 68.432 118.047 68.2187 118.325 68.048C118.41 67.984 118.538 67.9093 118.709 67.824C118.901 67.7173 119.082 67.6427 119.253 67.6C119.509 67.5147 119.829 67.4507 120.213 67.408C120.383 67.3867 120.554 67.376 120.725 67.376C120.895 67.376 121.077 67.376 121.269 67.376C122.015 67.376 122.719 67.376 123.381 67.376C124.063 67.376 124.778 67.3653 125.525 67.344C126.762 67.3227 127.989 67.3227 129.205 67.344C130.442 67.344 131.669 67.3653 132.885 67.408C133.162 67.4293 133.429 67.4613 133.685 67.504C133.941 67.5467 134.197 67.6213 134.453 67.728C134.645 67.792 134.826 67.8773 134.997 67.984C135.167 68.0693 135.306 68.1867 135.413 68.336ZM142.069 68.112C143.498 67.5787 144.789 67.344 145.941 67.408C147.114 67.472 148.16 67.7707 149.077 68.304C149.994 68.816 150.773 69.5093 151.413 70.384C152.074 71.2587 152.608 72.24 153.013 73.328C153.333 74.1387 153.578 74.992 153.749 75.888C153.92 76.784 154.016 77.68 154.037 78.576C154.08 79.4507 154.048 80.3147 153.941 81.168C153.856 82.0213 153.706 82.8107 153.493 83.536C153.365 84.0267 153.216 84.4747 153.045 84.88C152.874 85.2853 152.672 85.6907 152.437 86.096C151.904 87.0133 151.21 87.76 150.357 88.336C149.525 88.912 148.608 89.3173 147.605 89.552C146.922 89.7227 146.218 89.808 145.493 89.808C144.768 89.7867 144.053 89.6907 143.349 89.52C142.645 89.328 141.962 89.0613 141.301 88.72C140.661 88.3573 140.074 87.9093 139.541 87.376C138.88 86.736 138.336 86 137.909 85.168C137.482 84.3147 137.152 83.4293 136.917 82.512C136.682 81.5733 136.533 80.6347 136.469 79.696C136.405 78.7573 136.405 77.8613 136.469 77.008C136.533 76.2187 136.682 75.376 136.917 74.48C137.173 73.584 137.536 72.72 138.005 71.888C138.474 71.056 139.04 70.3093 139.701 69.648C140.384 68.9653 141.173 68.4533 142.069 68.112ZM149.557 81.808C149.813 80.8053 149.92 79.6747 149.877 78.416C149.834 77.1573 149.632 75.9733 149.269 74.864C149.034 74.1813 148.736 73.584 148.373 73.072C148.032 72.5387 147.616 72.1333 147.125 71.856C146.656 71.5787 146.101 71.44 145.461 71.44C144.821 71.44 144.106 71.632 143.317 72.016C142.848 72.2507 142.442 72.5707 142.101 72.976C141.781 73.3813 141.514 73.84 141.301 74.352C141.109 74.864 140.949 75.3973 140.821 75.952C140.714 76.5067 140.65 77.04 140.629 77.552C140.586 78.1067 140.576 78.6933 140.597 79.312C140.618 79.9093 140.682 80.5173 140.789 81.136C140.917 81.7333 141.088 82.3093 141.301 82.864C141.514 83.3973 141.802 83.8773 142.165 84.304C142.72 84.944 143.36 85.392 144.085 85.648C144.832 85.8827 145.568 85.9147 146.293 85.744C147.466 85.488 148.362 84.7093 148.981 83.408C149.237 82.9387 149.429 82.4053 149.557 81.808ZM63.8155 106.624C63.9008 107.029 63.9008 107.456 63.8155 107.904C63.7728 108.117 63.7302 108.331 63.6875 108.544C63.6662 108.736 63.6342 108.939 63.5915 109.152L63.5595 109.28C63.2608 110.603 62.9195 112 62.5355 113.472C62.1728 114.923 61.8422 116.299 61.5435 117.6C61.2875 118.667 61.0208 119.84 60.7435 121.12C60.4662 122.4 60.1782 123.573 59.8795 124.64C59.7728 125.003 59.6555 125.365 59.5275 125.728C59.4208 126.091 59.2822 126.453 59.1115 126.816C58.9622 127.136 58.7808 127.424 58.5675 127.68C58.3755 127.915 58.1515 128.085 57.8955 128.192C57.6395 128.32 57.3622 128.363 57.0635 128.32C56.7862 128.299 56.4768 128.171 56.1355 127.936C55.6235 127.573 55.2395 127.072 54.9835 126.432C54.7488 125.792 54.5035 125.205 54.2475 124.672C54.1622 124.523 54.0342 124.192 53.8635 123.68C53.6928 123.168 53.5115 122.613 53.3195 122.016C53.1275 121.397 52.9355 120.811 52.7435 120.256C52.5728 119.68 52.4235 119.253 52.2955 118.976C52.1035 119.445 51.9115 119.979 51.7195 120.576C51.5275 121.173 51.3462 121.76 51.1755 122.336C51.0048 122.912 50.8448 123.435 50.6955 123.904C50.5675 124.352 50.4715 124.683 50.4075 124.896C50.2368 125.323 50.0448 125.792 49.8315 126.304C49.6395 126.816 49.3942 127.253 49.0955 127.616C48.8182 127.979 48.4768 128.213 48.0715 128.32C47.6662 128.448 47.1862 128.331 46.6315 127.968C46.2048 127.712 45.9062 127.349 45.7355 126.88C45.6288 126.581 45.5222 126.293 45.4155 126.016C45.3088 125.739 45.2235 125.451 45.1595 125.152L44.5195 122.752L43.2075 117.6C43.0368 116.939 42.8662 116.267 42.6955 115.584C42.5462 114.88 42.3648 114.155 42.1515 113.408C42.0448 113.045 41.9488 112.693 41.8635 112.352C41.7995 111.989 41.7248 111.605 41.6395 111.2C41.5755 110.773 41.4902 110.293 41.3835 109.76C41.2982 109.227 41.1915 108.608 41.0635 107.904C41.0208 107.669 40.9888 107.456 40.9675 107.264C40.9675 107.051 40.9888 106.837 41.0315 106.624C41.0742 106.304 41.2235 106.027 41.4795 105.792C41.5862 105.685 41.7142 105.6 41.8635 105.536C42.0128 105.472 42.1728 105.419 42.3435 105.376C42.5995 105.291 42.8662 105.248 43.1435 105.248C43.3995 105.248 43.6662 105.333 43.9435 105.504C44.1355 105.611 44.2848 105.749 44.3915 105.92L44.7755 106.592C44.8182 106.741 44.8608 106.88 44.9035 107.008C44.9462 107.115 44.9888 107.232 45.0315 107.36C45.0742 107.509 45.1062 107.648 45.1275 107.776C45.1488 107.883 45.1702 107.989 45.1915 108.096C45.3835 109.205 45.6182 110.283 45.8955 111.328C46.1728 112.373 46.4288 113.376 46.6635 114.336C46.7488 114.72 46.8555 115.2 46.9835 115.776C47.1115 116.331 47.2395 116.917 47.3675 117.536C47.4955 118.133 47.6235 118.709 47.7515 119.264C47.8795 119.819 48.0075 120.256 48.1355 120.576C48.4128 119.616 48.6902 118.656 48.9675 117.696C49.2662 116.736 49.5862 115.765 49.9275 114.784C50.0982 114.272 50.2688 113.813 50.4395 113.408C50.6315 112.981 50.8448 112.629 51.0795 112.352C51.3142 112.075 51.5808 111.893 51.8795 111.808C52.1782 111.723 52.5302 111.755 52.9355 111.904C53.2982 112.053 53.6182 112.373 53.8955 112.864C54.1728 113.355 54.4182 113.856 54.6315 114.368C54.8235 114.837 55.0048 115.339 55.1755 115.872C55.3675 116.384 55.5488 116.896 55.7195 117.408C55.9115 117.899 56.0928 118.368 56.2635 118.816C56.4342 119.264 56.6048 119.648 56.7755 119.968C56.8395 119.733 56.9142 119.435 56.9995 119.072C57.0848 118.709 57.1702 118.325 57.2555 117.92C57.3622 117.493 57.4582 117.077 57.5435 116.672C57.6288 116.267 57.7142 115.893 57.7995 115.552C58.0768 114.4 58.3648 113.248 58.6635 112.096C58.9622 110.923 59.2502 109.771 59.5275 108.64L59.6875 108.096C59.7302 107.989 59.7515 107.883 59.7515 107.776C59.7728 107.648 59.8048 107.509 59.8475 107.36C59.8902 107.232 59.9328 107.115 59.9755 107.008C60.0182 106.88 60.0608 106.741 60.1035 106.592C60.1462 106.485 60.1888 106.379 60.2315 106.272C60.2955 106.144 60.3702 106.027 60.4555 105.92C60.5195 105.813 60.5942 105.728 60.6795 105.664C60.7648 105.6 60.8502 105.547 60.9355 105.504C61.2342 105.333 61.4902 105.248 61.7035 105.248C61.9808 105.248 62.2475 105.291 62.5035 105.376C62.8448 105.44 63.1542 105.579 63.4315 105.792C63.6448 106.005 63.7728 106.283 63.8155 106.624ZM83.649 125.824C83.6703 125.952 83.681 126.08 83.681 126.208C83.7023 126.315 83.713 126.443 83.713 126.592C83.713 126.848 83.6383 127.083 83.489 127.296C83.425 127.403 83.3397 127.509 83.233 127.616C83.1263 127.701 82.9983 127.776 82.849 127.84C82.3157 128.139 81.7503 128.245 81.153 128.16C80.8543 128.075 80.5877 127.936 80.353 127.744C80.3103 127.701 80.2783 127.68 80.257 127.68C80.2357 127.659 80.2143 127.627 80.193 127.584C80.1717 127.563 80.1503 127.541 80.129 127.52C80.1077 127.477 80.0757 127.445 80.033 127.424C79.9263 127.317 79.841 127.221 79.777 127.136C79.713 127.029 79.649 126.923 79.585 126.816C79.5423 126.709 79.489 126.613 79.425 126.528C79.3823 126.421 79.329 126.315 79.265 126.208C79.2223 126.123 79.1797 126.048 79.137 125.984C79.0943 125.899 79.0623 125.813 79.041 125.728C78.9557 125.536 78.9023 125.365 78.881 125.216L78.209 123.648C76.737 123.648 75.265 123.659 73.793 123.68C72.3423 123.68 70.881 123.669 69.409 123.648L68.737 125.216C68.6943 125.301 68.6623 125.387 68.641 125.472C68.641 125.557 68.6197 125.643 68.577 125.728C68.5343 125.813 68.4917 125.899 68.449 125.984C68.4277 126.048 68.3957 126.123 68.353 126.208C68.289 126.315 68.225 126.421 68.161 126.528C68.1183 126.613 68.065 126.709 68.001 126.816C67.9583 126.923 67.905 127.029 67.841 127.136C67.777 127.221 67.6917 127.317 67.585 127.424C67.5423 127.445 67.5103 127.477 67.489 127.52C67.4677 127.541 67.4463 127.563 67.425 127.584C67.4037 127.627 67.3823 127.659 67.361 127.68C67.3397 127.68 67.3077 127.701 67.265 127.744C67.0303 127.936 66.7637 128.075 66.465 128.16C65.8677 128.245 65.3023 128.139 64.769 127.84C64.6197 127.776 64.4917 127.701 64.385 127.616C64.2783 127.509 64.193 127.403 64.129 127.296C63.9797 127.083 63.905 126.848 63.905 126.592C63.905 126.443 63.905 126.315 63.905 126.208C63.9263 126.08 63.9477 125.952 63.969 125.824C64.0117 125.632 64.065 125.44 64.129 125.248C64.193 125.056 64.225 124.96 64.225 124.96L70.881 108.576L71.073 108.064C71.1157 107.936 71.169 107.819 71.233 107.712C71.297 107.605 71.3503 107.477 71.393 107.328C71.4997 107.051 71.617 106.805 71.745 106.592C71.809 106.464 71.8837 106.347 71.969 106.24C72.0543 106.133 72.1397 106.027 72.225 105.92C72.353 105.749 72.5343 105.611 72.769 105.504C73.0677 105.397 73.409 105.344 73.793 105.344C74.1983 105.344 74.5503 105.397 74.849 105.504C75.0837 105.611 75.265 105.749 75.393 105.92C75.5423 106.112 75.7023 106.336 75.873 106.592C76.001 106.805 76.1183 107.051 76.225 107.328C76.2677 107.477 76.321 107.605 76.385 107.712C76.449 107.819 76.5023 107.936 76.545 108.064L76.737 108.576L83.393 124.96C83.393 124.96 83.425 125.056 83.489 125.248C83.553 125.44 83.6063 125.632 83.649 125.824ZM76.065 117.984C75.7877 117.365 75.4997 116.725 75.201 116.064C74.9237 115.403 74.625 114.731 74.305 114.048C74.2197 113.856 74.1343 113.664 74.049 113.472C73.9637 113.259 73.8783 113.056 73.793 112.864C73.729 113.056 73.6543 113.259 73.569 113.472C73.4837 113.664 73.3983 113.856 73.313 114.048C72.993 114.731 72.6837 115.403 72.385 116.064C72.1077 116.725 71.8303 117.365 71.553 117.984L70.977 119.392H76.641L76.065 117.984ZM101.064 125.568C101.107 125.675 101.128 125.835 101.128 126.048C101.128 126.24 101.128 126.4 101.128 126.528C101.128 126.699 101.096 126.859 101.032 127.008C100.968 127.157 100.883 127.296 100.776 127.424C100.584 127.68 100.307 127.872 99.944 128C99.432 128.171 98.952 128.256 98.504 128.256C98.2693 128.277 98.024 128.288 97.768 128.288C97.512 128.288 97.256 128.309 97 128.352H96.872C95.2293 128.373 93.5333 128.373 91.784 128.352C91.3573 128.331 90.8773 128.331 90.344 128.352C89.8107 128.395 89.288 128.384 88.776 128.32C88.264 128.277 87.7947 128.16 87.368 127.968C86.9627 127.755 86.6747 127.424 86.504 126.976C86.4613 126.869 86.4293 126.773 86.408 126.688C86.3867 126.581 86.376 126.475 86.376 126.368C86.2907 125.643 86.2587 124.928 86.28 124.224C86.3013 123.52 86.312 122.827 86.312 122.144L86.376 117.504V113.216C86.376 112.448 86.376 111.765 86.376 111.168C86.3973 110.571 86.4187 109.909 86.44 109.184V109.024C86.4613 108.811 86.472 108.597 86.472 108.384C86.4933 108.171 86.504 107.957 86.504 107.744C86.5467 107.253 86.664 106.837 86.856 106.496C86.984 106.176 87.208 105.92 87.528 105.728C87.8053 105.536 88.136 105.44 88.52 105.44C88.6693 105.44 88.808 105.451 88.936 105.472C89.0853 105.472 89.224 105.483 89.352 105.504C89.48 105.525 89.5973 105.568 89.704 105.632C89.832 105.696 89.96 105.781 90.088 105.888C90.216 106.037 90.3333 106.219 90.44 106.432C90.5253 106.667 90.5787 106.901 90.6 107.136C90.6213 107.285 90.6427 107.424 90.664 107.552C90.6853 107.68 90.696 107.808 90.696 107.936C90.6533 108.064 90.632 108.192 90.632 108.32C90.632 108.448 90.632 108.565 90.632 108.672V109.248L90.504 124.32L96.84 124.384H98.344C98.472 124.384 98.6107 124.395 98.76 124.416C98.9093 124.416 99.0587 124.427 99.208 124.448C99.3787 124.469 99.528 124.491 99.656 124.512C99.784 124.533 99.912 124.565 100.04 124.608C100.275 124.672 100.467 124.779 100.616 124.928C100.851 125.141 101 125.355 101.064 125.568ZM118.47 125.568C118.513 125.675 118.534 125.835 118.534 126.048C118.534 126.24 118.534 126.4 118.534 126.528C118.534 126.699 118.502 126.859 118.438 127.008C118.374 127.157 118.289 127.296 118.182 127.424C117.99 127.68 117.713 127.872 117.35 128C116.838 128.171 116.358 128.256 115.91 128.256C115.676 128.277 115.43 128.288 115.174 128.288C114.918 128.288 114.662 128.309 114.406 128.352H114.278C112.636 128.373 110.94 128.373 109.19 128.352C108.764 128.331 108.284 128.331 107.75 128.352C107.217 128.395 106.694 128.384 106.182 128.32C105.67 128.277 105.201 128.16 104.774 127.968C104.369 127.755 104.081 127.424 103.91 126.976C103.868 126.869 103.836 126.773 103.814 126.688C103.793 126.581 103.782 126.475 103.782 126.368C103.697 125.643 103.665 124.928 103.686 124.224C103.708 123.52 103.718 122.827 103.718 122.144L103.782 117.504V113.216C103.782 112.448 103.782 111.765 103.782 111.168C103.804 110.571 103.825 109.909 103.846 109.184V109.024C103.868 108.811 103.878 108.597 103.878 108.384C103.9 108.171 103.91 107.957 103.91 107.744C103.953 107.253 104.07 106.837 104.262 106.496C104.39 106.176 104.614 105.92 104.934 105.728C105.212 105.536 105.542 105.44 105.926 105.44C106.076 105.44 106.214 105.451 106.342 105.472C106.492 105.472 106.63 105.483 106.758 105.504C106.886 105.525 107.004 105.568 107.11 105.632C107.238 105.696 107.366 105.781 107.494 105.888C107.622 106.037 107.74 106.219 107.846 106.432C107.932 106.667 107.985 106.901 108.006 107.136C108.028 107.285 108.049 107.424 108.07 107.552C108.092 107.68 108.102 107.808 108.102 107.936C108.06 108.064 108.038 108.192 108.038 108.32C108.038 108.448 108.038 108.565 108.038 108.672V109.248L107.91 124.32L114.246 124.384H115.75C115.878 124.384 116.017 124.395 116.166 124.416C116.316 124.416 116.465 124.427 116.614 124.448C116.785 124.469 116.934 124.491 117.062 124.512C117.19 124.533 117.318 124.565 117.446 124.608C117.681 124.672 117.873 124.779 118.022 124.928C118.257 125.141 118.406 125.355 118.47 125.568ZM125.477 109.184L125.413 114.208H126.693C127.567 114.187 128.346 114.176 129.029 114.176C129.711 114.176 130.469 114.187 131.301 114.208H131.461C131.717 114.208 131.962 114.219 132.197 114.24C132.453 114.24 132.698 114.24 132.933 114.24C133.189 114.261 133.434 114.304 133.669 114.368C133.903 114.411 134.138 114.464 134.373 114.528C134.735 114.656 135.034 114.848 135.269 115.104C135.482 115.381 135.589 115.691 135.589 116.032C135.589 116.139 135.589 116.267 135.589 116.416C135.589 116.544 135.567 116.661 135.525 116.768C135.482 117.003 135.343 117.216 135.109 117.408C135.002 117.557 134.799 117.664 134.501 117.728C134.223 117.813 133.946 117.867 133.669 117.888C133.37 117.952 133.071 117.984 132.773 117.984H131.269L125.349 118.016L125.285 124.288L131.653 124.352H133.157C133.327 124.352 133.487 124.352 133.637 124.352C133.786 124.352 133.925 124.363 134.053 124.384C134.223 124.427 134.373 124.459 134.501 124.48C134.65 124.48 134.789 124.501 134.917 124.544C135.173 124.629 135.386 124.747 135.557 124.896C135.77 125.109 135.909 125.333 135.972 125.568C135.994 125.675 136.005 125.792 136.005 125.92C136.026 126.027 136.026 126.144 136.005 126.272C136.005 126.613 135.898 126.923 135.685 127.2C135.429 127.499 135.13 127.691 134.789 127.776C134.341 127.968 133.85 128.064 133.317 128.064C133.082 128.085 132.837 128.096 132.581 128.096C132.325 128.096 132.079 128.107 131.845 128.128H131.653C129.989 128.171 128.261 128.171 126.469 128.128C126.042 128.128 125.701 128.117 125.445 128.096C125.189 128.096 124.954 128.096 124.741 128.096C124.549 128.096 124.346 128.096 124.133 128.096C123.919 128.096 123.642 128.096 123.301 128.096C122.81 128.139 122.405 128.053 122.085 127.84C121.85 127.691 121.669 127.488 121.541 127.232C121.477 127.168 121.445 127.104 121.445 127.04C121.423 126.997 121.402 126.965 121.381 126.944C121.359 126.923 121.338 126.891 121.317 126.848C121.274 126.741 121.242 126.635 121.221 126.528C121.199 126.4 121.189 126.283 121.189 126.176C121.167 126.069 121.146 125.963 121.125 125.856C121.125 125.749 121.114 125.643 121.093 125.536V125.024C121.093 124.939 121.093 124.853 121.093 124.768C121.114 124.683 121.125 124.597 121.125 124.512V122.016L121.189 117.408V113.152C121.189 112.384 121.189 111.701 121.189 111.104C121.21 110.507 121.231 109.856 121.253 109.152V108.992C121.274 108.757 121.285 108.544 121.285 108.352C121.306 108.139 121.317 107.925 121.317 107.712C121.338 107.285 121.455 106.869 121.669 106.464C121.754 106.293 121.839 106.144 121.924 106.016C122.031 105.888 122.17 105.781 122.341 105.696C122.661 105.504 122.991 105.408 123.333 105.408C123.503 105.408 123.631 105.419 123.717 105.44V105.408C124.101 105.408 124.41 105.408 124.645 105.408C124.879 105.408 125.103 105.408 125.317 105.408C125.551 105.408 125.797 105.408 126.053 105.408C126.309 105.387 126.661 105.376 127.109 105.376C127.962 105.355 128.773 105.344 129.541 105.344C130.309 105.344 131.098 105.355 131.909 105.376H132.037C132.271 105.397 132.517 105.408 132.773 105.408C133.029 105.408 133.274 105.419 133.509 105.44C133.743 105.44 133.978 105.472 134.213 105.536C134.447 105.579 134.682 105.643 134.917 105.728C135.279 105.835 135.578 106.016 135.812 106.272C136.005 106.571 136.101 106.869 136.101 107.168C136.101 107.296 136.101 107.424 136.101 107.552C136.101 107.659 136.079 107.765 136.037 107.872C136.015 108.085 135.887 108.309 135.653 108.544C135.567 108.587 135.471 108.64 135.365 108.704C135.279 108.768 135.173 108.821 135.045 108.864C134.917 108.907 134.778 108.939 134.629 108.96C134.501 108.96 134.373 108.971 134.245 108.992C134.074 109.035 133.914 109.056 133.765 109.056C133.637 109.056 133.487 109.056 133.317 109.056H131.877L125.477 109.088V109.184ZM155.694 106.336C155.929 106.613 156.046 106.901 156.046 107.2C156.046 107.328 156.035 107.467 156.014 107.616C156.014 107.744 156.003 107.861 155.982 107.968C155.918 108.203 155.779 108.427 155.566 108.64C155.395 108.768 155.161 108.864 154.862 108.928C154.713 108.971 154.563 109.003 154.414 109.024C154.265 109.045 154.105 109.077 153.934 109.12C153.785 109.141 153.635 109.152 153.486 109.152C153.337 109.152 153.177 109.152 153.006 109.152H151.374C150.99 109.173 150.606 109.184 150.222 109.184C149.859 109.184 149.497 109.184 149.134 109.184C149.155 109.845 149.166 110.56 149.166 111.328C149.166 112.075 149.155 112.949 149.134 113.952C149.134 114.955 149.123 116.117 149.102 117.44C149.102 118.763 149.102 120.299 149.102 122.048V124.48C149.102 124.693 149.113 124.853 149.134 124.96C149.134 125.045 149.134 125.131 149.134 125.216C149.134 125.28 149.123 125.365 149.102 125.472C149.059 125.664 149.027 125.888 149.006 126.144C149.006 126.251 148.995 126.357 148.974 126.464C148.953 126.549 148.921 126.645 148.878 126.752C148.793 126.837 148.75 126.901 148.75 126.944L148.654 127.136C148.547 127.349 148.345 127.552 148.046 127.744C147.577 127.979 147.054 128.032 146.478 127.904C146.115 127.861 145.838 127.765 145.646 127.616C145.454 127.424 145.315 127.232 145.23 127.04C145.102 126.805 145.027 126.581 145.006 126.368C144.942 126.176 144.91 125.973 144.91 125.76V109.312C144.782 109.312 144.515 109.312 144.11 109.312C143.705 109.312 143.267 109.312 142.798 109.312C142.35 109.291 141.923 109.269 141.518 109.248C141.113 109.227 140.835 109.205 140.686 109.184C140.558 109.163 140.355 109.131 140.078 109.088C139.822 109.045 139.609 109.003 139.438 108.96C138.99 108.832 138.638 108.629 138.382 108.352C138.147 108.075 138.03 107.765 138.03 107.424C138.03 107.296 138.03 107.168 138.03 107.04C138.03 106.912 138.051 106.795 138.094 106.688C138.158 106.432 138.329 106.219 138.606 106.048C138.691 105.984 138.819 105.909 138.99 105.824C139.182 105.717 139.363 105.643 139.534 105.6C139.79 105.515 140.11 105.451 140.494 105.408C140.665 105.387 140.835 105.376 141.006 105.376C141.177 105.376 141.358 105.376 141.55 105.376C142.297 105.376 143.001 105.376 143.662 105.376C144.345 105.376 145.059 105.365 145.806 105.344C147.043 105.323 148.27 105.323 149.486 105.344C150.723 105.344 151.95 105.365 153.166 105.408C153.443 105.429 153.71 105.461 153.966 105.504C154.222 105.547 154.478 105.621 154.734 105.728C154.926 105.792 155.107 105.877 155.278 105.984C155.449 106.069 155.587 106.187 155.694 106.336Z" fill="#E7E14E"/>
</svg>
