<svg width="100" height="100" viewBox="0 0 100 100" fill="none" xmlns="http://www.w3.org/2000/svg">
<path d="M77.5636 51.9237C77.5595 55.9745 77.5286 59.4174 77.2984 62.2425C77.0313 65.5208 76.484 68.2602 75.2588 70.5353C74.7184 71.5389 74.0544 72.4375 73.2459 73.2459C70.9516 75.5403 68.0284 76.5797 64.324 77.0777C60.7048 77.5643 56.0662 77.5643 50.1472 77.5642H49.853C43.9341 77.5643 39.2955 77.5643 35.6763 77.0777C31.9719 76.5797 29.0487 75.5403 26.7543 73.2459C24.7203 71.2119 23.6699 68.6802 23.1113 65.5397C22.5626 62.4546 22.4622 58.6163 22.4413 53.8501C22.436 52.6377 22.436 51.3555 22.436 50.0027V49.853C22.436 43.9341 22.436 39.2955 22.9226 35.6763C23.4206 31.9719 24.46 29.0487 26.7543 26.7543C29.0487 24.46 31.9719 23.4206 35.6763 22.9226C38.8949 22.4898 43.036 22.442 48.0762 22.4367C49.1383 22.4356 50.0001 23.297 50.0001 24.3591C50.0001 25.4212 49.1379 26.2818 48.0759 26.2829C42.9644 26.2883 39.1606 26.3349 36.1888 26.7344C32.9108 27.1751 30.9346 28.0133 29.474 29.474C28.0133 30.9346 27.1751 32.9108 26.7344 36.1888C26.2863 39.5221 26.2822 43.9021 26.2822 50.0001C26.2822 50.7448 26.2822 51.465 26.2831 52.1623L28.8501 49.9162C31.1867 47.8717 34.7083 47.989 36.9037 50.1844L47.903 61.1837C49.6651 62.9458 52.4389 63.1861 54.4778 61.7532L55.2424 61.2158C58.1764 59.1539 62.1458 59.3928 64.8113 61.7917L72.069 68.3237C72.7995 66.7895 73.2333 64.7737 73.465 61.9302C73.6833 59.2509 73.7133 55.9967 73.7174 51.9238C73.7185 50.8617 74.5791 50.0001 75.6412 50.0001C76.7032 50.0001 77.5647 50.8616 77.5636 51.9237Z" fill="#E7E14E"/>
<path fill-rule="evenodd" clip-rule="evenodd" d="M65.1602 47.2437C59.313 47.2437 56.3894 47.2437 54.5728 45.4272C52.7563 43.6107 52.7563 40.6871 52.7563 34.8399C52.7563 28.9927 52.7563 26.069 54.5728 24.2525C56.3894 22.436 59.313 22.436 65.1602 22.436C71.0074 22.436 73.931 22.436 75.7475 24.2525C77.564 26.069 77.564 28.9927 77.564 34.8399C77.564 40.6871 77.564 43.6107 75.7475 45.4272C73.931 47.2437 71.0074 47.2437 65.1602 47.2437ZM70.7566 31.9999L66.622 27.8653C65.8147 27.0579 64.5057 27.0579 63.6984 27.8653L59.5638 31.9999C58.7564 32.8072 58.7564 34.1161 59.5638 34.9235C60.3711 35.7308 61.6801 35.7308 62.4874 34.9235L63.0929 34.318V40.3527C63.0929 41.4944 64.0185 42.42 65.1602 42.42C66.3019 42.42 67.2275 41.4944 67.2275 40.3527V34.318L67.833 34.9235C68.6403 35.7308 69.9493 35.7308 70.7566 34.9235C71.564 34.1161 71.564 32.8072 70.7566 31.9999Z" fill="#E7E14E"/>
<path d="M100 50C100 77.6142 77.6142 100 50 100C22.3858 100 0 77.6142 0 50C0 22.3858 22.3858 0 50 0C77.6142 0 100 22.3858 100 50ZM6.54753 50C6.54753 73.9981 26.0019 93.4525 50 93.4525C73.9981 93.4525 93.4525 73.9981 93.4525 50C93.4525 26.0019 73.9981 6.54753 50 6.54753C26.0019 6.54753 6.54753 26.0019 6.54753 50Z" fill="#E7E14E"/>
</svg>
