<svg width="50" height="50" viewBox="0 0 50 50" fill="none" xmlns="http://www.w3.org/2000/svg">
<path opacity="0.2" d="M25 50C38.8071 50 50 38.8071 50 25C50 11.1929 38.8071 0 25 0C11.1929 0 0 11.1929 0 25C0 38.8071 11.1929 50 25 50Z" fill="#F3BA2F"/>
<path fill-rule="evenodd" clip-rule="evenodd" d="M19.7736 22.8513L25.0027 17.6245L30.2339 22.8556L33.2749 19.8126L25.0027 11.5386L16.7305 19.8105L19.7736 22.8513ZM11.5386 25.0006L14.5805 21.9587L17.6225 25.0006L14.5805 28.0424L11.5386 25.0006ZM25.0027 32.3779L19.7736 27.1489L16.7263 30.1876L16.7305 30.1919L25.0027 38.4617L33.2749 30.1876L33.277 30.1855L30.2339 27.1468L25.0027 32.3779ZM32.3778 25.0013L35.4197 21.9595L38.4617 25.0013L35.4197 28.0432L32.3778 25.0013ZM25.0027 21.9114L28.0883 24.999H28.0904L28.0883 25.0012L25.0027 28.0888L21.9171 25.0054L21.9128 24.999L21.9171 24.9948L22.4572 24.4547L22.7209 24.1931L25.0027 21.9114Z" fill="#F3BA2F"/>
</svg>
