<svg width="50" height="50" viewBox="0 0 50 50" fill="none" xmlns="http://www.w3.org/2000/svg">
<path opacity="0.2" d="M49.25 31.0481C45.9109 44.4411 32.3453 52.5911 18.9508 49.252C5.56249 45.913 -2.5883 32.3473 0.751548 18.9552C4.08905 5.56062 17.6539 -2.59094 31.0445 0.748122C44.4383 4.08718 52.5883 17.6544 49.2492 31.0481H49.25Z" fill="#F7931A"/>
<path fill-rule="evenodd" clip-rule="evenodd" d="M32.5294 22.0955C32.8665 19.8388 31.1482 18.6256 28.7988 17.8163L29.5609 14.7594L27.6996 14.2956L26.9576 17.272C26.469 17.1501 25.9665 17.0351 25.4673 16.9212L26.2146 13.9252L24.3549 13.4614L23.5922 16.5173C23.1873 16.4251 22.7898 16.334 22.404 16.238L22.4061 16.2285L19.8399 15.5877L19.3449 17.5752C19.3449 17.5752 20.7255 17.8916 20.6963 17.9112C21.45 18.0994 21.5867 18.5981 21.5634 18.9934L20.6953 22.476C20.7472 22.4893 20.8145 22.5083 20.8887 22.538L20.6926 22.4893L19.4752 27.3678C19.383 27.5968 19.1493 27.9402 18.6225 27.8098C18.641 27.8368 17.27 27.4722 17.27 27.4722L16.3462 29.6028L18.7682 30.2064C19.0416 30.2749 19.3116 30.3454 19.5786 30.415L19.5789 30.4151C19.7519 30.4602 19.9237 30.505 20.0943 30.5488L19.3242 33.6413L21.1829 34.105L21.9461 31.0459C22.4533 31.1837 22.9461 31.3109 23.4284 31.4307L22.6684 34.4755L24.5292 34.9392L25.2993 31.8531C28.4723 32.4536 30.8589 32.2114 31.8621 29.342C32.6714 27.0313 31.8224 25.6983 30.1529 24.8286C31.3687 24.5472 32.2845 23.7474 32.5289 22.0955H32.5294ZM28.2773 28.0573C27.749 30.1781 24.4287 29.3006 22.9108 28.8995C22.7749 28.8635 22.6534 28.8314 22.5497 28.8057L23.5715 24.7094C23.6983 24.741 23.8532 24.7758 24.0286 24.8151C25.5989 25.1675 28.817 25.8896 28.2778 28.0573H28.2773ZM24.3442 22.9143C25.6108 23.2522 28.3714 23.9887 28.8523 22.0621C29.344 20.0911 26.6595 19.497 25.3485 19.2069C25.2011 19.1743 25.0711 19.1455 24.9649 19.1191L24.0384 22.8343C24.1261 22.8561 24.229 22.8836 24.3442 22.9143Z" fill="#F7931A"/>
</svg>
