<svg width="50" height="50" viewBox="0 0 50 50" fill="none" xmlns="http://www.w3.org/2000/svg">
<path opacity="0.2" d="M25 50C38.8071 50 50 38.8071 50 25C50 11.1929 38.8071 0 25 0C11.1929 0 0 11.1929 0 25C0 38.8071 11.1929 50 25 50Z" fill="#32A4BE"/>
<path opacity="0.2" d="M25 50C38.8071 50 50 38.8071 50 25C50 11.1929 38.8071 0 25 0C11.1929 0 0 11.1929 0 25C0 38.8071 11.1929 50 25 50Z" fill="#C2A633"/>
<mask id="mask0_2042_3316" style="mask-type:luminance" maskUnits="userSpaceOnUse" x="0" y="0" width="50" height="50">
<path d="M25 50C38.8071 50 50 38.8071 50 25C50 11.1929 38.8071 0 25 0C11.1929 0 0 11.1929 0 25C0 38.8071 11.1929 50 25 50Z" fill="white"/>
</mask>
<g mask="url(#mask0_2042_3316)">
<path fill-rule="evenodd" clip-rule="evenodd" d="M25.4136 14.9724H18.5876V24.0383H14.4231V27.0603H18.5876V36.1263H25.4136C29.0166 36.1263 29.7929 35.7489 31.3456 34.9943C31.4662 34.9357 31.5914 34.8748 31.723 34.8117C33.5495 33.9353 34.969 32.7014 35.9814 31.1098C36.9938 29.5182 37.5 27.6647 37.5 25.5493C37.5 23.4339 36.9938 21.5805 35.9814 19.9889C34.969 18.3973 33.5495 17.1634 31.723 16.287C29.8964 15.4106 27.7933 14.9724 25.4136 14.9724ZM23.6601 27.0603V32.107H25.1631C27.355 32.107 29.1032 31.5177 30.4079 30.3392C31.7125 29.1606 32.3649 27.564 32.3649 25.5493C32.3649 23.5347 31.7125 21.9381 30.4079 20.7595C29.1032 19.5809 27.355 18.9916 25.1631 18.9916H23.6601V24.0383H28.5135V27.0603H23.6601Z" fill="#C2A633"/>
</g>
</svg>
