<svg width="50" height="50" viewBox="0 0 50 50" fill="none" xmlns="http://www.w3.org/2000/svg">
<path opacity="0.2" d="M49.8644 25.0005C49.8644 38.7349 38.7307 49.8689 24.9965 49.8689C11.262 49.8689 0.128174 38.7349 0.128174 25.0005C0.128174 11.2662 11.262 0.132324 24.9965 0.132324C38.7306 0.132324 49.8644 11.2662 49.8644 25.0005Z" fill="#C362FF"/>
<g opacity="0.8">
<path d="M24.9168 13.4614L24.7632 13.9835V29.1331L24.9168 29.2865L31.9491 25.1297L24.9168 13.4614Z" fill="#F2A6FF"/>
<path d="M24.9168 13.4614L17.8845 25.1297L24.9168 29.2865V21.9333V13.4614Z" fill="#F2A6FF"/>
<path d="M24.9166 31.5744L24.8301 31.6799V37.0765L24.9166 37.3293L31.9531 27.4197L24.9166 31.5744Z" fill="#F2A6FF"/>
<path d="M24.9168 37.3293V31.5744L17.8845 27.4197L24.9168 37.3293Z" fill="#F2A6FF"/>
<path d="M24.9167 29.2864L31.9489 25.1297L24.9167 21.9333V29.2864Z" fill="#F2A6FF"/>
<path d="M17.8845 25.1297L24.9167 29.2865V21.9333L17.8845 25.1297Z" fill="#F2A6FF"/>
</g>
</svg>
