<svg width="50" height="50" viewBox="0 0 50 50" fill="none" xmlns="http://www.w3.org/2000/svg">
<path opacity="0.2" fill-rule="evenodd" clip-rule="evenodd" d="M25 50C38.8071 50 50 38.8071 50 25C50 11.1929 38.8071 0 25 0C11.1929 0 0 11.1929 0 25C0 38.8071 11.1929 50 25 50Z" fill="#83BD67"/>
<path fill-rule="evenodd" clip-rule="evenodd" d="M22.8099 13.4614C24.1829 13.4614 25.5508 13.4614 26.9238 13.4614C26.8431 14.3902 26.7572 15.3241 26.6815 16.2529C28.2817 16.369 29.8415 16.8838 31.2447 17.6461C30.639 19.1705 30.0282 20.6949 29.4174 22.2194C28.2362 21.2149 26.6815 20.6596 25.1318 20.6798C24.7432 20.6899 24.3393 20.7656 24.0163 20.9877C23.8043 21.1341 23.6478 21.3612 23.6024 21.6136C23.567 21.8156 23.5771 22.0427 23.6882 22.2244C23.8144 22.4263 24.0365 22.5475 24.2586 22.6232C24.7129 22.7847 25.2025 22.7948 25.677 22.8453C26.7926 22.9816 27.9132 23.1734 28.9682 23.5722C29.7859 23.8852 30.5683 24.3546 31.1286 25.0411C31.6587 25.6721 31.9666 26.4696 32.0827 27.2874C32.219 28.2313 32.1786 29.2106 31.8858 30.1293C31.6587 30.8663 31.27 31.5528 30.7652 32.1333C29.7203 33.3447 28.1858 34.0716 26.6109 34.2584C26.6613 35.2528 26.7219 36.2422 26.7774 37.2366C25.4751 37.2366 24.1778 37.2366 22.8805 37.2366C22.931 36.2523 22.9966 35.268 23.0421 34.2836C21.9972 34.2483 20.9624 34.0161 19.9881 33.6476C19.0442 33.2892 18.1457 32.8147 17.3077 32.2595C17.9236 30.6745 18.5394 29.0894 19.1603 27.4994C19.8619 28.09 20.609 28.6402 21.4268 29.0592C22.3051 29.5084 23.2793 29.7961 24.2687 29.8062C24.7381 29.8113 25.2227 29.786 25.6669 29.6245C25.9395 29.5236 26.207 29.3469 26.3282 29.0693C26.4544 28.7765 26.4443 28.408 26.2525 28.1455C26.1162 27.9688 25.9244 27.8477 25.7224 27.7619C25.4499 27.6508 25.1672 27.5902 24.8795 27.5448C23.8194 27.3732 22.7543 27.2319 21.7296 26.8987C20.9068 26.6312 20.1042 26.2576 19.448 25.6822C19.0341 25.3238 18.6908 24.8846 18.4485 24.3899C18.0851 23.653 17.9488 22.8201 17.9589 22.0023C17.9589 21.0887 18.1457 20.1599 18.6 19.3573C18.9937 18.6405 19.5944 18.0549 20.2708 17.6057C21.0885 17.0656 22.0022 16.6971 22.931 16.3993C22.8906 15.42 22.8502 14.4407 22.8099 13.4614Z" fill="#83BD67"/>
</svg>
